<svg width="24.000000000000004" height="24.000000000000004" xmlns="http://www.w3.org/2000/svg">

 <g>
  <title>Layer 1</title>
  <g stroke="null" id="svg_1">
   <path stroke="null" id="svg_2" d="m-1.23203,-0.98563l26.46406,0l0,26.01232l-26.46406,0l0,-26.01232z" fill="none"/>
   <path stroke="null" id="svg_3" d="m6.67631,2.00254l3.57485,3.51491l3.49656,0l3.57596,-3.51383a1.10267,1.08385 0 0 1 1.56028,1.53364l-2.01678,1.98019l2.30017,0a3.85934,3.79346 0 0 1 3.85934,3.79346l0,8.67077a3.85934,3.79346 0 0 1 -3.85934,3.79346l-14.3347,0a3.85934,3.79346 0 0 1 -3.85934,-3.79346l0,-8.67077a3.85934,3.79346 0 0 1 3.85934,-3.79346l2.29907,0l-2.01568,-1.98236a1.10267,1.08385 0 0 1 1.56028,-1.53364l0,0.00108zm12.49104,5.68261l-14.3347,0a1.654,1.62577 0 0 0 -1.64629,1.4697l-0.00772,0.15607l0,8.67077a1.654,1.62577 0 0 0 1.49522,1.61818l0.15878,0.00759l14.3347,0a1.654,1.62577 0 0 0 1.64629,-1.4697l0.00772,-0.15607l0,-8.67077a1.654,1.62577 0 0 0 -1.654,-1.62577zm-11.57803,3.25154a1.10267,1.08385 0 0 1 1.10267,1.08385l0,2.16769a1.10267,1.08385 0 0 1 -2.20534,0l0,-2.16769a1.10267,1.08385 0 0 1 1.10267,-1.08385zm8.82135,0a1.10267,1.08385 0 0 1 1.10267,1.08385l0,2.16769a1.10267,1.08385 0 0 1 -2.20534,0l0,-2.16769a1.10267,1.08385 0 0 1 1.10267,-1.08385z"/>
  </g>
 </g>
</svg>