<svg width="24" height="24" xmlns="http://www.w3.org/2000/svg" fill="none">

 <g>
  <title>Layer 1</title>
  <g stroke="null" id="svg_3">
   <path stroke="#000000" id="svg_1" stroke-linejoin="round" stroke-linecap="round" stroke-width="2" d="m15.48932,22.80613c0.18737,-2.05835 0.4493,-5.76377 -0.56243,-6.68953c-1.12465,0.51459 11.24722,-1.54366 5.06123,-11.32068c0.37495,-0.6861 0.56243,-2.05831 0,-3.60204c-1.68697,-0.00011 -3.37405,0.51468 -4.4988,1.54373c-0.37495,-0.17148 -1.57459,-0.51447 -3.37415,-0.51447"/>
   <path stroke="#000000" id="svg_2" stroke-linejoin="round" stroke-linecap="round" stroke-width="2" d="m9.07698,22.80613c-0.05899,-0.71936 -0.12617,-1.64005 -0.14971,-2.57294m3.1879,-18.01005c-1.62042,0 -2.70063,0.34299 -3.03821,0.51447c-1.01273,-1.02905 -2.53183,-1.54384 -4.05091,-1.54373c-0.5064,1.54373 -0.33756,2.91594 0,3.60204c-5.57008,9.77703 5.56997,11.83527 4.55731,11.32068c-0.53403,0.54268 -0.67395,2.04063 -0.66432,3.60211m0,0c-1.65149,-0.34309 -4.39259,-1.74962 -6.41806,-3.39626c3.03821,2.57294 1.4636,3.91074 6.4263,3.91074m-0.00824,-0.51448c0.00106,0.17106 0.00391,0.34299 0.00824,0.51448"/>
  </g>
 </g>
</svg>