<svg width="32" height="32" xmlns="http://www.w3.org/2000/svg" fill="#000000">

 <g>
  <title>Layer 1</title>
  <path stroke="null" id="svg_1" d="m15.98191,0.54683c-8.60685,0 -15.60983,6.89908 -15.60983,15.37824c0,8.47916 7.00298,15.37824 15.60983,15.37824c8.60685,0 15.60983,-6.89908 15.60983,-15.37824c0,-8.47916 -7.00298,-15.37824 -15.60983,-15.37824zm0,2.36588c7.30898,0 13.20832,5.81182 13.20832,13.01236c0,7.20054 -5.89934,13.01236 -13.20832,13.01236c-7.30898,0 -13.20832,-5.81182 -13.20832,-13.01236c0,-7.20054 5.89934,-13.01236 13.20832,-13.01236zm-6.00378,3.54882a1.20076,1.18294 0 0 0 0,2.36588a1.20076,1.18294 0 0 0 0,-2.36588zm-1.20076,3.54882l0,13.01236l2.40151,0l0,-13.01236l-2.40151,0zm4.80302,0l0,1.18294l0,11.82941l5.4034,0c3.63298,0 6.60416,-2.92709 6.60416,-6.50618c0,-3.57908 -2.97117,-6.50618 -6.60416,-6.50618l-5.4034,0zm2.40151,2.36588l3.00189,0c2.33477,0 4.20265,1.84016 4.20265,4.1403c0,2.30014 -1.86787,4.1403 -4.20265,4.1403l-3.00189,0l0,-8.28059z"/>
 </g>
</svg>