<svg xmlns="http://www.w3.org/2000/svg" viewBox="0 0 500 500">
  <g transform="translate(25 25)">
    <rect width="450" height="450" fill="#FEFEFE"/>
    <path d="M227 4c1 0 1 0 2 0 1 0 3 1 4 2 7 4 14 8 21 12 22 13 45 26 67 39l78 45c5 3 10 6 15 9 2 1 4 2 5 4 0 1 0 2 0 2 0 7 0 14 0 21v29c0 37 0 73 0 110 0 12 0 25 0 37 0 7 1 15 0 22-4 3-8 5-13 8l-14 8-56 32c-4 2-7 4-11 6a3943 3943 0 00-48 28 1693 1693 0 01-38 22c-3 2-7 4-10 6-1 0-2 0-2 0-2-1-4-2-6-4-2-1-5-3-7-4l-36-21-105-60-31-18c-2-1-4-3-6-4 0-6 0-12 0-17v-29-91-56-17c0-4 0-8 0-12 1-1 2-2 3-2 4-2 8-4 12-7 11-7 23-13 34-20a7184 7184 0 0075-44c12-7 24-14 37-21 7-4 13-8 20-12 3-2 6-4 9-5" stroke="black" stroke-width="54" stroke-linecap="round" stroke-linejoin="round"/>
    <path fill="#FEFEFE" d="M116 78c0 0 1 0 1 0 1 1 1 2 1 2 1 7 0 14 0 21v24l0 116 0 31c0 6 0 11 0 17 1 1 1 1 2 2 4 3 14 9 19 11l30 17c6 4 12 7 18 11 1 1 3 1 4 1 1-2-1-59 1-67 2-1 66-1 73-1 1 6 1 13 1 19v33 67c0 12 0 23 0 35-3 3-11 7-15 9l-14 8c-3 2-6 3-9 5-4-1-11-6-15-9a3092 3092 0 01-45-26l-71-41c-15-9-31-18-46-27-2-1-4-2-5-4 0-16 0-33 0-50l0-87 0-45c0-7-1-26 1-30 3-2 6-3 8-5a1295 1295 0 0120-11c14-8 28-17 43-25"/>
    <path fill="#FEFEFE" d="M228 14c2 0 36 21 42 24l94 54a3986 3986 0 0147 27c0 12 0 24 0 36v73l0 75c0 9 0 19 0 28-3 2-7 5-11 6l-34 20-18 11c-3 2-6 4-10 5-2-5-1-26-1-32l0-122a4102 4102 0 000-42c0-5 0-11 0-16-3-2-6-3-8-5l-21-12c-7-4-15-8-22-13-7-4-13-8-20-12 0 6 0 12 0 19v31c0 5 0 12 0 17 0 1 0 1-1 2 0 0-1 0-2 0-8 0-17 0-25 0-13 0-27 0-40 0-2 0-4 0-6-1 0-1 0-2 0-3l0-104 0-30c0-4-1-11 0-14l0 0 0 0c0-1 1-1 1-1 7-5 16-9 23-13 4-2 8-5 12-7"/>
  </g>
</svg>
