<svg width="24" height="24" xmlns="http://www.w3.org/2000/svg" fill="#000">

 <g>
  <title>Layer 1</title>
  <g stroke="null" id="svg_1" transform="scale(0.05714 0.05714)">
   <rect stroke="null" id="svg_2" y="48.38" x="204.34" height="30" width="179.35" transform="matrix(0.884804 0.51131 -0.510842 0.885614 68.8393 -145.26)"/>
   <rect stroke="null" id="svg_3" y="48.41" x="37.78" height="30" width="179.35" transform="matrix(0.884804 -0.51131 0.510842 0.885614 -18.3856 70.0014)"/>
   <rect stroke="null" id="svg_4" y="194.99" x="-46.77" height="30" width="179.35" transform="matrix(0 1.02262 -1.02168 0 254.797 167.313)"/>
   <rect stroke="null" id="svg_5" y="194.68" x="288.51" height="30" width="179.35" transform="matrix(0 1.02262 -1.02168 0 597.163 -175.366)"/>
   <rect stroke="null" id="svg_6" y="340.93" x="37.47" height="30" width="179.35" transform="matrix(0.884804 0.51131 -0.510842 0.885614 195.657 -19.7288)"/>
   <rect stroke="null" id="svg_7" y="339.78" x="204.14" height="30" width="179.35" transform="matrix(0.884804 -0.51131 0.510842 0.885614 -144.692 195.396)"/>
   <path stroke="null" id="svg_8" d="m229.35746,5.16692c0,2.50542 -7.89761,4.5302 -17.63425,4.5302s-17.63425,-2.02479 -17.63425,-4.5302s7.89761,-4.5302 17.63425,-4.5302s17.63425,2.02479 17.63425,4.5302l0,18.12081c0,2.50542 -7.89761,4.5302 -17.63425,4.5302s-17.63425,-2.02479 -17.63425,-4.5302l0,-18.12081l35.2685,0z"/>
   <path stroke="null" id="svg_9" d="m397.21412,122.44338c-2.16777,1.25271 -7.86849,-4.5807 -12.73681,-13.0206s-7.06522,-16.2981 -4.89745,-17.5508s7.86849,4.5807 12.73681,13.0206s7.06522,16.2981 4.89745,17.5508l-15.67872,9.06041c-2.16777,1.25271 -7.86849,-4.5807 -12.73681,-13.0206s-7.06522,-16.2981 -4.89745,-17.5508l15.67872,-9.06041l17.63425,30.5714z"/>
   <path stroke="null" id="svg_10" d="m379.8455,327.98985c-2.16777,-1.25271 0.02913,-9.1109 4.89745,-17.5508s10.56904,-14.27331 12.73681,-13.0206s-0.02913,9.1109 -4.89745,17.5508s-10.56904,14.27331 -12.73681,13.0206l-15.67872,-9.06041c-2.16777,-1.25271 0.02913,-9.1109 4.89745,-17.5508s10.56904,-14.27331 12.73681,-13.0206l15.67872,9.06041l-17.63425,30.5714z"/>
   <path stroke="null" id="svg_11" d="m40.78355,131.13565c-2.16777,-1.25271 0.02913,-9.1109 4.89745,-17.5508s10.60817,-14.23889 12.7317,-13.01174s-0.02913,9.1109 -4.89745,17.5508s-10.60817,14.23889 -12.7317,13.01174l-15.67872,-9.06041c-2.16777,-1.25271 0.02913,-9.1109 4.89745,-17.5508s10.56393,-14.26445 12.7317,-13.01174l15.67872,9.06041l-17.62914,30.56255z"/>
   <path stroke="null" id="svg_12" d="m58.15217,320.32021c-2.16777,1.25271 -7.86849,-4.5807 -12.73681,-13.0206s-7.01587,-16.3148 -4.89234,-17.54195s7.86849,4.5807 12.73681,13.0206s7.01587,16.3148 4.89234,17.54195l-15.67872,9.06041c-2.16777,1.25271 -7.86849,-4.5807 -12.73681,-13.0206s-6.1753,-16.80055 -4.00753,-18.05326l14.79392,-8.5491l17.62914,30.56255z"/>
   <path stroke="null" id="svg_13" d="m227.31409,397.3005c0,2.50542 -7.89761,4.5302 -17.63425,4.5302s-17.63425,-2.02479 -17.63425,-4.5302s7.89761,-4.5302 17.63425,-4.5302s17.63425,2.02479 17.63425,4.5302l0,18.12081c0,2.50542 -7.89761,4.5302 -17.63425,4.5302s-17.63425,-2.02479 -17.63425,-4.5302l0,-18.12081l35.2685,0z"/>
   <rect stroke="null" id="svg_14" y="224.57" x="167.4" height="60" width="220" transform="matrix(0 1.02262 -1.02168 0 539.949 -26.0639)"/>
   <path stroke="null" id="svg_15" d="m249.46419,145.02033l0,-32.31477l61.23969,32.31477l-61.23969,0z"/>
   <rect stroke="null" id="svg_16" y="178.48043" x="139.78649" height="61.35716" width="142.2183"/>
   <rect stroke="null" id="svg_17" y="132.26" x="37.5" height="60" width="220" transform="matrix(0 1.02262 -1.02168 0 312.89 11.5276)"/>
   <path stroke="null" id="svg_18" d="m177.52748,274.23848l0,32.31477l-61.23969,-32.31477l61.23969,0z"/>
  </g>
 </g>
</svg>