<svg xmlns="http://www.w3.org/2000/svg" viewBox="0 0 24 24" width="24" height="24" fill="#000">
  <g transform="scale(0.05714)">
    <rect transform="rotate(30 294 63)" width="179.35" height="30" x="204.34" y="48.38"/>
    <rect transform="rotate(-30 127 63)" width="179.35" height="30" x="37.78" y="48.41"/>
    <rect transform="rotate(90 42.9 210)" width="179.35" height="30" x="-46.77" y="194.99"/>
    <rect transform="rotate(90 378 210)" width="179.35" height="30" x="288.51" y="194.68"/>
    <rect transform="rotate(30 127 356)" width="179.35" height="30" x="37.47" y="340.93"/>
    <rect transform="rotate(-30 294 355)" width="179.35" height="30" x="204.14" y="339.78"/>
    <path d="M228 8.54c0 2.45-7.73 4.43-17.26 4.43s-17.26-1.98-17.26-4.43 7.73-4.43 17.26-4.43 17.26 1.98 17.26 4.43v17.72c0 2.45-7.73 4.43-17.26 4.43s-17.26-1.98-17.26-4.43V8.54z"/>
    <path transform="rotate(60 376 113)" d="M393 104c0 2.45-7.73 4.43-17.26 4.43s-17.26-1.98-17.26-4.43 7.73-4.43 17.26-4.43 17.26 1.98 17.26 4.43v17.72c0 2.45-7.73 4.43-17.26 4.43s-17.26-1.98-17.26-4.43V104z"/>
    <path transform="rotate(120 376 305)" d="M393 296c0 2.45-7.73 4.43-17.26 4.43s-17.26-1.98-17.26-4.43 7.73-4.43 17.26-4.43 17.26 1.98 17.26 4.43v17.72c0 2.45-7.73 4.43-17.26 4.43s-17.26-1.98-17.26-4.43V296z"/>
    <path transform="rotate(120 45 113)" d="M62 105c0 2.45-7.73 4.43-17.26 4.43S27.49 107.4 27.49 105s7.73-4.43 17.26-4.43S62 102.6 62 105v17.72c0 2.45-7.73 4.43-17.26 4.43S27.49 125.17 27.49 122.72V105z"/>
    <path transform="rotate(60 45 306)" d="M62 298c0 2.45-7.73 4.43-17.26 4.43S27.49 300.4 27.49 298s7.73-4.43 17.26-4.43S62 295.6 62 298v17.72c0 2.45-7.73 4.43-17.26 4.43S27.49 317.17 27.49 314.72V298z"/>
    <path d="M226 392c0 2.45-7.73 4.43-17.26 4.43s-17.26-1.98-17.26-4.43 7.73-4.43 17.26-4.43 17.26 1.98 17.26 4.43v17.72c0 2.45-7.73 4.43-17.26 4.43s-17.26-1.98-17.26-4.43V392z"/>
    <rect transform="rotate(90 277 255)" width="220" height="60" x="167.4" y="224.57"/>
    <path d="M247.68 145.3v-31.6l59.94 31.6h-59.94z"/>
    <rect width="139.2" height="60" x="140.33" y="178.02"/>
    <rect transform="rotate(90 147.5 162.26)" width="220" height="60" x="37.5" y="132.26"/>
    <path transform="rotate(180 147.3 287.46)" d="M117.33 303.26v-31.6l59.94 31.6h-59.94z"/>
  </g>
</svg>
