<svg width="24" height="24" xmlns="http://www.w3.org/2000/svg" data-name="Layer 1">

 <g>
  <title>Layer 1</title>
  <path id="svg_1" stroke-width="1.91px" stroke-miterlimit="10" stroke="#020202" fill="none" d="m9.23,16.3568l-0.09,0a8.74,8.74 0 0 1 -3,-0.54l-0.81,0.54l0,-0.9a6.58,6.58 0 0 1 -3.83,-5.78c0,-3.69 3.42,-6.68 7.64,-6.68s7.63,3 7.63,6.68l0,0.07" class="cls-1"/>
  <path id="svg_2" stroke-width="1.91px" stroke-miterlimit="10" stroke="#020202" fill="none" d="m22.5,15.4068a5.5,5.5 0 0 1 -2.86,4.69l0,1l-0.88,-0.53a7.63,7.63 0 0 1 -2.94,0.58c-3.7,0 -6.68,-2.57 -6.68,-5.73s3,-5.73 6.68,-5.73s6.68,2.56 6.68,5.72z" class="cls-1"/>
  <circle id="svg_3" fill="#020202" r="0.95" cy="7.7668" cx="6.27" class="cls-2"/>
  <circle id="svg_4" fill="#020202" r="0.95" cy="7.7668" cx="12" class="cls-2"/>
  <circle id="svg_5" fill="#020202" r="0.95" cy="14.4568" cx="12.95" class="cls-2"/>
  <circle id="svg_6" fill="#020202" r="0.95" cy="14.4568" cx="18.68" class="cls-2"/>
 </g>
</svg>